<?xml version="1.0"?>
<svg xmlns="http://www.w3.org/2000/svg" xmlns:xlink="http://www.w3.org/1999/xlink" xmlns:svgjs="http://svgjs.com/svgjs" version="1.1" width="512" height="512" x="0" y="0" viewBox="0 0 512 512" style="enable-background:new 0 0 512 512" xml:space="preserve" class=""><g><g xmlns="http://www.w3.org/2000/svg"><path d="M104,336a24,24,0,1,0,24,24A24.027,24.027,0,0,0,104,336Zm0,32a8,8,0,1,1,8-8A8.009,8.009,0,0,1,104,368Z" fill="#ffffff" data-original="#000000" style="" class=""/><path d="M408,336a24,24,0,1,0,24,24A24.027,24.027,0,0,0,408,336Zm0,32a8,8,0,1,1,8-8A8.009,8.009,0,0,1,408,368Z" fill="#ffffff" data-original="#000000" style="" class=""/><path d="M503.06,228.24,444.71,118.82A27.966,27.966,0,0,0,420,104H36A28.031,28.031,0,0,0,8,132V340a28.031,28.031,0,0,0,28,28H48.58a55.994,55.994,0,0,0,110.84,0H352.58a55.994,55.994,0,0,0,110.84,0H476a28.031,28.031,0,0,0,28-28V232A7.94,7.94,0,0,0,503.06,228.24ZM444.27,152l38.4,72H368V152ZM24,152H80v72H24Zm0,120H40a8,8,0,0,1,0,16H24Zm80,128a40,40,0,1,1,40-40A40.04,40.04,0,0,1,104,400Zm304,0a40,40,0,1,1,40-40A40.04,40.04,0,0,1,408,400Zm80-60a12.01,12.01,0,0,1-12,12H463.42a55.994,55.994,0,0,0-110.84,0H159.42a55.994,55.994,0,0,0-110.84,0H36a12.01,12.01,0,0,1-12-12V304H40a24.031,24.031,0,0,0,22.62-16H449.38A24.031,24.031,0,0,0,472,304h16Zm0-52H472a8,8,0,0,1,0-16h16Zm0-32H472a24.031,24.031,0,0,0-22.62,16H62.62A24.031,24.031,0,0,0,40,256H24V240H88a8,8,0,0,0,8-8V144a8,8,0,0,0-8-8H24v-4a12.01,12.01,0,0,1,12-12H420a11.977,11.977,0,0,1,10.59,6.35l5.14,9.65H360a8,8,0,0,0-8,8v88a8,8,0,0,0,8,8H488Z" fill="#ffffff" data-original="#000000" style="" class=""/><path d="M360,264h24a8,8,0,0,0,0-16H360a8,8,0,0,0,0,16Z" fill="#ffffff" data-original="#000000" style="" class=""/><path d="M120,240h88a8,8,0,0,0,8-8V144a8,8,0,0,0-8-8H120a8,8,0,0,0-8,8v88A8,8,0,0,0,120,240Zm8-88h72v72H128Z" fill="#ffffff" data-original="#000000" style="" class=""/><path d="M240,240h88a8,8,0,0,0,8-8V144a8,8,0,0,0-8-8H240a8,8,0,0,0-8,8v88A8,8,0,0,0,240,240Zm8-88h72v72H248Z" fill="#ffffff" data-original="#000000" style="" class=""/><path d="M288,304H176a8,8,0,0,0,0,16H288a8,8,0,0,0,0-16Z" fill="#ffffff" data-original="#000000" style="" class=""/><path d="M208,328H176a8,8,0,0,0,0,16h32a8,8,0,0,0,0-16Z" fill="#ffffff" data-original="#000000" style="" class=""/></g></g></svg>
